<?xml version="1.0" standalone="no"?>
<!DOCTYPE svg PUBLIC "-//W3C//DTD SVG 20010904//EN"
 "http://www.w3.org/TR/2001/REC-SVG-20010904/DTD/svg10.dtd">
<svg version="1.0" xmlns="http://www.w3.org/2000/svg"
 width="1920.000000pt" height="1080.000000pt" viewBox="0 0 1920.000000 1080.000000"
 preserveAspectRatio="xMidYMid meet">

<g transform="translate(0.000000,1080.000000) scale(0.100000,-0.100000)"
fill="#000000" stroke="none">
<path d="M9220 8324 c-14 -2 -65 -9 -115 -15 -440 -53 -904 -223 -1280 -469
-674 -440 -1142 -1114 -1316 -1894 -50 -225 -62 -348 -63 -636 -1 -311 11
-433 71 -695 87 -389 290 -824 531 -1139 495 -650 1209 -1070 2019 -1188 181
-27 600 -32 773 -10 508 65 934 223 1345 497 879 587 1387 1571 1352 2615 -16
452 -113 840 -312 1245 -148 302 -319 540 -563 788 -493 499 -1129 809 -1831
892 -114 13 -537 19 -611 9z m295 -334 c320 -46 584 -288 662 -608 45 -183 -7
-509 -83 -520 -35 -5 -49 23 -35 66 74 222 68 404 -16 584 -162 342 -580 497
-928 343 -187 -83 -332 -250 -397 -455 -19 -63 -23 -96 -22 -200 0 -108 4
-136 27 -205 15 -44 27 -88 27 -97 0 -21 -27 -37 -51 -31 -40 11 -89 194 -89
336 -1 483 427 855 905 787z m212 -1042 l353 -353 103 103 c56 56 109 102 117
102 8 0 116 -101 240 -225 124 -124 228 -225 232 -225 5 0 75 68 157 150 111
112 155 150 174 150 17 0 44 -21 93 -73 38 -41 218 -226 399 -411 348 -356
366 -379 314 -406 -24 -13 -65 26 -608 584 l-203 209 -136 -136 -136 -136 341
-343 c445 -447 562 -570 563 -588 0 -9 -5 -21 -12 -28 -29 -29 -56 -12 -178
116 -68 70 -376 383 -684 695 l-560 568 -100 -101 c-60 -59 -109 -100 -121
-100 -13 0 -145 125 -366 346 l-347 347 -94 -99 c-52 -55 -269 -283 -483 -509
-1317 -1389 -1179 -1245 -1192 -1245 -5 0 -18 6 -28 14 -16 11 -18 19 -10 39
6 14 192 217 415 452 223 235 406 430 408 434 1 3 -59 67 -134 141 l-136 135
-161 -167 c-590 -608 -611 -629 -637 -626 -29 4 -39 37 -18 67 7 10 175 185
373 387 198 203 374 384 392 401 17 18 39 33 49 33 11 0 86 -68 174 -155 l156
-155 99 102 c55 57 174 182 265 278 360 382 553 580 563 580 6 0 170 -159 364
-352z m-272 -298 c136 -136 140 -144 92 -174 -14 -9 -35 7 -125 97 l-107 107
-255 -256 c-140 -140 -263 -260 -272 -265 -25 -13 -58 6 -58 34 0 15 83 105
282 304 156 156 290 283 298 283 8 0 74 -59 145 -130z m2505 -1401 c36 -5 84
-19 107 -29 l43 -19 0 -85 0 -86 -95 0 c-78 0 -95 3 -95 15 0 22 -44 37 -75
25 -51 -19 -24 -43 104 -89 146 -53 195 -111 194 -231 0 -102 -49 -176 -137
-210 -91 -34 -279 -32 -403 5 l-53 16 0 94 0 95 98 0 c96 0 99 -1 110 -25 10
-21 19 -25 52 -25 48 0 63 22 34 49 -10 10 -54 30 -98 46 -96 34 -154 77 -183
135 -39 76 -27 196 25 253 57 63 216 92 372 66z m-520 -144 l0 -146 -102 3
-103 3 -3 63 -3 62 -49 0 -50 0 0 -70 0 -70 40 0 40 0 0 -55 0 -55 -40 0 -40
0 0 -80 0 -80 50 0 49 0 3 73 3 72 103 3 102 3 0 -151 0 -150 -310 0 -310 0 0
75 c0 73 1 75 25 75 l25 0 0 205 0 205 -25 0 c-24 0 -25 2 -25 73 0 41 3 77 7
80 3 4 143 7 310 7 l303 0 0 -145z m-3900 60 c0 -68 -2 -75 -20 -75 -19 0 -20
-7 -20 -205 0 -198 1 -205 20 -205 18 0 20 -7 20 -75 l0 -75 -170 0 -170 0 0
75 c0 68 2 75 20 75 19 0 20 7 20 205 0 198 -1 205 -20 205 -18 0 -20 7 -20
75 l0 75 170 0 170 0 0 -75z m569 -107 l121 -183 0 108 0 107 -25 0 c-24 0
-25 2 -25 75 l0 75 150 0 150 0 0 -75 c0 -68 -2 -75 -20 -75 -20 0 -20 -7 -20
-280 l0 -281 -132 3 -132 3 -121 187 c-66 104 -126 193 -133 200 -9 9 -12 -16
-12 -115 l0 -127 25 0 c24 0 25 -2 25 -75 l0 -75 -150 0 -150 0 0 75 c0 68 2
75 20 75 19 0 20 7 20 205 0 198 -1 205 -20 205 -18 0 -20 7 -20 75 l0 75 164
0 165 0 120 -182z m1014 135 c8 -27 43 -153 78 -280 52 -192 67 -233 81 -233
16 0 18 -10 18 -75 l0 -75 -180 0 -180 0 0 75 c0 73 1 75 25 75 19 0 25 5 25
23 0 41 -13 48 -76 45 -57 -3 -58 -4 -65 -35 -6 -31 -5 -33 22 -33 l29 0 0
-75 0 -75 -160 0 -160 0 0 75 c0 68 2 75 20 75 14 0 22 11 29 38 6 20 41 146
78 280 l66 242 168 0 168 0 14 -47z m667 -28 l0 -75 -40 0 -40 0 0 -205 0
-205 40 0 40 0 0 45 0 45 90 0 90 0 0 -120 0 -120 -285 0 -285 0 0 75 c0 73 1
75 25 75 l25 0 0 205 0 205 -25 0 c-24 0 -25 2 -25 75 l0 75 195 0 195 0 0
-75z m828 49 c66 -33 93 -75 99 -157 13 -164 -57 -236 -239 -245 l-98 -5 0
-63 0 -64 45 0 45 0 0 -75 0 -75 -200 0 -200 0 0 75 c0 73 1 75 25 75 l25 0 0
205 0 205 -25 0 c-24 0 -25 2 -25 75 l0 75 248 0 c246 0 248 0 300 -26z
m-1091 -994 c45 -75 50 -80 82 -80 26 0 41 -8 67 -37 l34 -37 38 37 c21 20 42
37 47 37 5 0 25 -16 45 -35 l36 -35 34 35 c19 19 41 35 49 35 8 0 31 -16 51
-35 l36 -35 34 35 c56 57 83 51 169 -41 39 -42 71 -82 71 -89 0 -8 -30 -48
-67 -89 l-68 -76 -302 0 -303 0 -37 -61 c-21 -34 -46 -72 -56 -85 l-19 -24
-196 2 -196 3 -78 125 c-43 69 -87 144 -99 166 l-23 41 99 162 99 161 203 0
202 0 48 -80z m821 -530 c17 -13 38 -40 46 -62 9 -21 23 -38 31 -38 29 0 76
-31 95 -63 26 -42 27 -122 2 -159 -32 -49 -570 -575 -604 -591 -18 -9 -205
-59 -415 -111 l-383 -96 -41 -45 -42 -45 -188 0 -189 0 0 213 0 212 193 192
c105 105 202 196 214 202 15 7 137 11 375 11 l353 0 190 191 c105 105 204 197
220 205 40 19 105 12 143 -16z"/>
<path d="M8901 4968 c-6 -35 -14 -75 -18 -90 -5 -27 -4 -28 37 -28 35 0 41 3
36 18 -3 9 -10 46 -17 82 -6 36 -15 68 -19 73 -3 4 -12 -21 -19 -55z"/>
<path d="M10380 5015 c0 -68 2 -75 20 -75 33 0 60 35 60 79 0 45 -20 71 -56
71 -23 0 -24 -2 -24 -75z"/>
<path d="M9087 4203 c-13 -21 -49 -82 -81 -135 l-58 -97 79 -128 79 -128 169
-2 170 -3 48 80 48 80 304 0 305 0 42 46 c24 25 44 50 46 55 2 4 -18 31 -44
59 l-47 51 -47 -46 c-25 -25 -50 -45 -55 -45 -5 0 -26 17 -47 37 l-38 37 -38
-37 c-21 -20 -42 -37 -48 -37 -6 0 -25 16 -44 35 l-33 34 -39 -34 c-21 -19
-43 -35 -50 -35 -6 0 -29 19 -51 42 -30 32 -50 43 -80 48 -37 5 -43 11 -87 80
l-47 75 -166 3 -166 2 -24 -37z m192 -139 c55 -46 59 -120 9 -173 -34 -35 -79
-45 -122 -27 -55 23 -76 53 -76 109 0 42 5 54 34 83 45 45 108 48 155 8z"/>
<path d="M9167 4012 c-36 -39 -10 -92 43 -92 47 0 68 61 32 93 -24 22 -55 21
-75 -1z"/>
<path d="M10052 3477 l-174 -173 35 -35 c18 -19 36 -41 39 -49 7 -18 384 346
386 373 3 29 -34 57 -75 57 -34 0 -49 -12 -211 -173z"/>
<path d="M10264 3421 c-66 -61 -177 -171 -247 -245 -99 -105 -136 -138 -165
-146 -49 -13 -497 -13 -523 0 -10 6 -19 17 -19 25 0 30 39 35 288 35 247 0
249 0 270 23 30 32 29 81 -3 112 l-24 25 -372 0 -373 0 -188 -187 -188 -187 0
-168 0 -168 142 0 142 0 46 44 45 44 380 97 c209 53 394 101 410 107 17 7 157
138 313 293 267 265 282 282 282 316 0 45 -25 77 -66 85 -29 6 -40 -2 -150
-105z"/>
</g>
</svg>
